<?xml version="1.0" standalone="no"?>
<!DOCTYPE svg PUBLIC "-//W3C//DTD SVG 20010904//EN"
 "http://www.w3.org/TR/2001/REC-SVG-20010904/DTD/svg10.dtd">
<svg version="1.0" xmlns="http://www.w3.org/2000/svg"
 width="512.000000pt" height="512.000000pt" viewBox="0 0 512.000000 512.000000"
 preserveAspectRatio="xMidYMid meet">
<metadata>
Created by potrace 1.11, written by Peter Selinger 2001-2013
</metadata>
<g transform="translate(0.000000,512.000000) scale(0.100000,-0.100000)"
fill="#000000" stroke="none">
<path d="M2565 4801 c-27 -10 -63 -23 -78 -29 -43 -18 -136 -116 -159 -169
-29 -66 -58 -186 -63 -263 -3 -58 -7 -67 -31 -82 -41 -25 -44 -36 -38 -133 8
-111 15 -130 54 -150 l30 -16 0 -150 c0 -82 -5 -193 -11 -247 -10 -89 -13 -99
-40 -120 -16 -13 -29 -33 -30 -45 -1 -17 -3 -15 -10 9 -9 30 -10 31 -49 24
-22 -4 -57 -19 -78 -33 -36 -25 -114 -57 -141 -57 -7 0 -41 -13 -75 -29 -33
-16 -102 -41 -151 -56 -50 -14 -95 -31 -101 -38 -33 -36 -113 -215 -134 -298
-4 -19 -26 -104 -48 -189 -52 -208 -67 -271 -97 -430 -14 -74 -30 -148 -34
-165 -5 -16 -15 -55 -21 -85 -7 -30 -14 -60 -15 -66 -2 -6 -31 -17 -65 -23
-49 -10 -77 -10 -131 0 -95 17 -128 0 -165 -88 -19 -45 -40 -73 -75 -103 -56
-47 -80 -47 -104 1 -9 16 -20 29 -25 29 -20 0 -40 113 -50 290 -19 336 -39
842 -42 1058 -1 130 -6 216 -13 221 -15 12 -110 31 -156 31 -38 0 -41 -2 -59
-45 -52 -122 -110 -371 -131 -563 -17 -160 -7 -473 20 -627 107 -612 446
-1154 945 -1509 37 -27 69 -47 71 -44 2 2 -2 26 -10 53 -8 26 -15 70 -15 96 0
26 -4 50 -9 53 -15 9 -13 163 2 178 7 7 14 30 14 50 1 51 21 106 42 118 17 9
18 6 9 -38 -14 -80 -13 -145 6 -201 16 -45 18 -74 13 -180 -3 -69 -7 -134 -9
-145 -6 -35 258 -173 484 -251 483 -169 1030 -172 1513 -9 177 59 401 166 389
185 -3 6 -6 96 -7 201 -2 145 1 192 11 195 19 7 14 54 -13 103 -14 25 -30 55
-36 68 -7 12 -16 22 -21 22 -4 0 -8 8 -8 18 1 16 1 16 11 0 5 -10 17 -18 25
-18 8 0 19 -12 25 -27 5 -15 26 -50 46 -78 l37 -50 -2 -130 c-2 -71 -7 -146
-11 -165 -5 -19 -12 -56 -15 -83 -6 -47 -5 -47 17 -36 42 22 202 132 272 187
77 61 293 274 342 338 l32 40 -30 -4 c-63 -9 -110 64 -50 78 31 7 39 28 14 36
-10 3 -28 10 -39 16 -25 11 -48 12 -122 2 -44 -6 -55 -11 -67 -35 -18 -34 -19
-55 -2 -63 6 -3 3 -4 -8 -1 -24 5 -45 -35 -70 -135 -24 -95 -55 -189 -65 -195
-18 -11 -18 28 1 92 12 37 25 86 30 108 6 22 14 44 20 50 5 5 9 20 9 34 0 23
4 39 32 129 15 50 12 142 -5 160 -10 9 -38 14 -86 14 -58 0 -83 -6 -127 -27
-30 -14 -54 -31 -54 -36 0 -5 -7 -9 -16 -9 -13 0 -14 8 -8 48 7 43 7 119 0
247 -4 70 1 87 25 80 11 -4 19 -2 19 4 0 6 -4 11 -10 11 -5 0 -10 5 -10 10 0
14 26 12 37 -3 6 -7 7 -66 4 -146 -4 -98 -3 -135 6 -138 6 -3 62 5 124 17 86
17 118 19 131 11 21 -13 21 -10 8 44 -40 157 -76 220 -100 175 -13 -25 -30
-17 -30 13 0 12 -10 38 -21 57 -13 20 -24 59 -27 95 -3 38 -13 70 -25 88 -19
24 -20 32 -9 75 24 103 24 110 3 131 -12 12 -27 21 -34 21 -24 0 -67 -50 -67
-79 0 -52 -21 -91 -65 -121 -24 -17 -50 -30 -59 -30 -19 0 -32 47 -45 165 -6
50 -15 124 -21 165 -6 41 -14 186 -19 321 -5 136 -11 251 -14 256 -4 6 -13 53
-21 105 -25 171 -74 225 -255 288 -61 21 -130 49 -154 63 -38 23 -150 67 -169
67 -4 0 -10 -17 -14 -37 -9 -53 -36 -103 -76 -139 -60 -57 -85 -64 -221 -64
-135 0 -208 10 -265 37 -68 32 -172 158 -172 206 1 17 5 13 21 -18 42 -85 131
-149 252 -180 69 -18 151 -19 198 -3 60 20 150 89 165 124 20 47 18 110 -2
118 -14 6 -16 17 -10 84 10 113 22 157 68 258 37 82 44 91 60 81 30 -19 51 3
81 89 29 80 29 84 11 202 -4 25 -2 42 4 42 5 0 12 10 15 23 3 12 11 42 17 67
7 25 12 100 11 167 -1 114 -3 127 -28 177 -33 64 -138 162 -216 201 -44 22
-63 25 -146 24 -62 -1 -114 -7 -146 -18z m487 -568 c2 -32 -3 -68 -13 -77 -5
-6 -9 -20 -9 -32 0 -31 -17 -39 -30 -14 -12 22 -8 43 17 103 17 40 32 48 35
20z m-55 -285 c-3 -8 -6 -5 -6 6 -1 11 2 17 5 13 3 -3 4 -12 1 -19z m-424
-1271 c20 -10 37 -21 37 -26 0 -5 9 -7 20 -4 12 3 38 -7 67 -26 26 -18 59 -34
73 -38 14 -3 31 -10 38 -16 24 -19 52 -85 52 -122 0 -29 5 -37 26 -45 14 -6
40 -10 59 -10 20 0 35 -6 39 -15 8 -22 -14 -28 -94 -23 l-70 4 -16 -54 c-15
-46 -20 -53 -38 -48 -12 3 -27 6 -34 6 -9 0 -13 11 -10 37 2 21 -2 38 -9 40
-7 3 -9 -3 -6 -16 8 -32 -13 -50 -54 -47 -19 2 -39 9 -43 17 -7 10 -14 11 -32
1 -13 -6 -34 -12 -48 -14 -34 -4 -37 -32 -4 -47 21 -9 25 -17 21 -36 -6 -36 8
-31 40 15 30 42 46 51 41 23 -2 -15 3 -17 32 -15 20 2 48 -4 64 -12 20 -10 36
-12 53 -5 39 15 71 11 83 -10 14 -28 -18 -99 -66 -144 -32 -31 -46 -37 -81
-37 -30 0 -43 -4 -43 -14 0 -15 -45 -30 -60 -21 -14 9 -50 -13 -50 -30 0 -17
-34 -28 -61 -20 -16 6 -20 13 -17 36 4 25 2 28 -14 23 -11 -3 -26 0 -34 7 -11
9 -18 8 -32 -5 -22 -19 -86 -21 -108 -3 -90 73 -154 171 -154 235 1 51 23 66
91 63 34 -1 70 -8 80 -14 15 -9 24 -9 39 1 11 6 27 12 35 12 16 0 20 27 6 49
-7 11 -10 9 -16 -8 -6 -20 -9 -21 -23 -8 -23 18 -61 19 -79 1 -17 -17 -37 -18
-65 -3 -20 11 -63 16 -145 18 -36 1 -43 4 -43 21 0 18 7 20 69 20 113 0 109
39 -5 51 -111 11 -103 46 11 48 63 1 99 -25 89 -63 -4 -16 -2 -26 5 -26 6 0
11 17 11 39 0 30 5 42 24 54 21 14 26 14 45 1 16 -12 32 -13 71 -6 48 9 51 8
56 -14 7 -26 19 -31 29 -13 4 6 13 8 21 5 7 -3 18 3 23 13 13 24 -4 41 -43 41
-17 1 -42 7 -56 15 -14 8 -51 14 -82 15 -31 0 -59 3 -61 8 -15 25 87 137 130
144 43 6 77 -6 89 -31 20 -39 34 -48 34 -21 0 23 38 74 49 67 3 -2 23 -11 44
-20z m474 -312 c3 -9 3 -18 0 -21 -9 -9 -48 16 -42 27 9 14 35 11 42 -6z
m-114 -71 c80 -14 27 -46 -68 -41 -33 2 -41 6 -43 25 -3 19 1 22 35 22 21 0
55 -3 76 -6z m-1226 -426 c-3 -8 -6 -5 -6 6 -1 11 2 17 5 13 3 -3 4 -12 1 -19z
m-507 -13 c9 -11 9 -22 1 -46 -6 -18 -12 -46 -12 -63 -2 -27 -2 -28 -6 -6 -3
14 -9 30 -15 37 -6 8 -6 18 1 31 7 14 6 25 -5 40 -14 20 -14 22 4 22 11 0 25
-7 32 -15z m1275 -162 c6 -34 16 -68 23 -75 26 -26 13 -37 -43 -37 -55 0 -65
8 -46 38 9 14 -17 71 -31 71 -16 0 -7 22 20 45 45 41 65 30 77 -42z m-1247 -5
c7 -7 12 -24 12 -39 0 -42 18 -82 47 -106 l27 -22 -50 -44 c-27 -25 -52 -43
-56 -41 -3 2 -2 21 4 41 11 40 3 165 -12 194 -15 26 6 39 28 17z m-64 -88 c-2
-38 -22 -90 -35 -90 -8 0 -3 98 7 149 l5 24 12 -24 c7 -13 12 -40 11 -59z
m2562 33 c-11 -11 -19 6 -11 24 8 17 8 17 12 0 3 -10 2 -21 -1 -24z m-65 -223
c-13 -11 -36 -20 -52 -20 -16 0 -30 -6 -31 -12 -2 -18 -5 -49 -7 -75 -2 -35
-19 -27 -32 15 -18 61 -10 83 36 98 22 6 56 12 75 13 l35 0 -24 -19z m540
-240 c30 -16 24 -47 -10 -55 -28 -6 -71 8 -71 22 0 11 35 42 48 42 7 1 22 -4
33 -9z"/>
<path d="M2575 2495 c-99 -29 -95 -27 -87 -54 4 -14 7 -41 6 -58 0 -18 3 -33
8 -33 4 0 8 19 9 43 0 41 16 99 19 67 0 -8 11 -23 25 -33 20 -14 28 -15 49 -5
30 13 32 20 10 53 -16 25 -19 26 -39 20z"/>
<path d="M2654 2463 c-8 -28 -1 -38 26 -38 17 0 26 -7 30 -25 l6 -25 6 23 c5
19 11 22 35 16 15 -4 29 -7 30 -8 8 -5 -12 -56 -23 -56 -7 0 -16 -4 -19 -10
-3 -5 3 -10 14 -10 14 0 23 9 27 25 3 14 12 25 19 25 19 0 45 28 45 49 0 10
-13 22 -33 29 -46 16 -64 15 -76 -5 -9 -17 -11 -16 -33 5 -29 26 -48 28 -54 5z"/>
<path d="M2337 2413 c-21 -5 -19 -37 3 -40 23 -4 41 12 34 30 -3 9 -9 16 -13
16 -3 -1 -14 -3 -24 -6z"/>
<path d="M2440 2375 c-10 -12 -10 -15 4 -15 9 0 16 7 16 15 0 8 -2 15 -4 15
-2 0 -9 -7 -16 -15z"/>
<path d="M2612 2371 c-25 -15 -9 -46 23 -46 42 0 57 12 44 36 -10 20 -44 25
-67 10z"/>
<path d="M2447 2303 c-16 -3 -31 -11 -34 -19 -8 -20 12 -39 29 -28 7 5 20 9
28 9 8 0 16 10 18 23 2 12 0 21 -5 21 -4 -1 -21 -4 -36 -6z"/>
<path d="M2526 2123 c5 -5 12 -12 16 -18 4 -6 8 -2 8 8 0 9 -7 17 -17 17 -9 0
-12 -3 -7 -7z"/>
<path d="M4610 1911 c0 -15 -13 -27 -47 -43 -61 -28 -59 -25 -44 -50 12 -19
11 -23 -5 -35 -10 -7 -24 -13 -31 -13 -7 0 -13 -11 -13 -26 l0 -26 113 4 c90
3 118 7 141 23 l29 19 -7 -24 c-4 -19 -2 -18 8 5 7 17 17 41 20 55 l7 25 -14
-23 -14 -24 -46 45 c-26 24 -47 51 -47 58 0 8 -12 22 -25 32 -24 17 -25 17
-25 -2z"/>
<path d="M4553 1511 c-20 -47 -33 -144 -24 -178 l7 -27 24 34 c13 19 24 48 25
65 0 20 5 30 15 30 12 0 69 86 70 105 0 3 -23 5 -51 6 -50 1 -52 0 -66 -35z"/>
<path d="M4375 1200 c-3 -5 5 -15 19 -22 14 -6 26 -18 26 -26 0 -9 7 -6 20 11
21 27 26 42 11 32 -5 -3 -12 -1 -16 5 -8 13 -52 13 -60 0z"/>
</g>
</svg>
